<svg width="64" height="64" viewBox="0 0 64 64" fill="none" xmlns="http://www.w3.org/2000/svg">
<rect opacity="0.45" x="0.5" y="0.5" width="63" height="63" rx="17.5" fill="#4ACFFF" fill-opacity="0.6" stroke="url(#paint0_linear_549_446)"/>
<path d="M47.5 18.8838V29.9199C47.4998 40.1838 40.8532 49.7292 32 52.1035C23.1468 49.7292 16.5002 40.1838 16.5 29.9199V18.8838L32 11.5527L47.5 18.8838ZM33.9717 27.9102L34.085 28.1943L34.3896 28.2227L39.6318 28.7061L35.626 32.3896L35.4141 32.584L35.4766 32.8652L36.6738 38.3076L32.2158 35.458L31.9463 35.2852L31.6768 35.458L27.2334 38.3066L28.417 32.8633L28.4785 32.583L28.2676 32.3896L24.2783 28.7246L29.5215 28.2412L29.8271 28.2139L29.9404 27.9277L31.9482 22.8516L33.9717 27.9102ZM44.9443 20.7109L44.6592 20.5752L32.2139 14.6729L32 14.5713L31.7861 14.6729L19.3408 20.5752L19.0557 20.7109V30.3359C19.0557 34.5353 20.5376 38.784 22.8633 42.2227C25.1862 45.6571 28.3854 48.3333 31.8633 49.3203L32 49.3584L32.1367 49.3203C35.6146 48.3333 38.8138 45.6571 41.1367 42.2227C43.4624 38.784 44.9443 34.5353 44.9443 30.3359V20.7109Z" stroke="#0C1E92"/>
<defs>
<linearGradient id="paint0_linear_549_446" x1="32" y1="0" x2="32" y2="64" gradientUnits="userSpaceOnUse">
<stop stop-color="white" stop-opacity="0.4"/>
<stop offset="1" stop-color="white" stop-opacity="0.1"/>
</linearGradient>
</defs>
</svg>
